<?xml version="1.0" standalone="no"?>
<!DOCTYPE svg PUBLIC "-//W3C//DTD SVG 20010904//EN"
 "http://www.w3.org/TR/2001/REC-SVG-20010904/DTD/svg10.dtd">
<svg version="1.0" xmlns="http://www.w3.org/2000/svg"
 width="2944.000000pt" height="2944.000000pt" viewBox="0 0 2944.000000 2944.000000"
 preserveAspectRatio="xMidYMid meet">
<metadata>
Created by potrace 1.11, written by Peter Selinger 2001-2013
</metadata>
<g transform="translate(0.000000,2944.000000) scale(0.100000,-0.100000)"
fill="#000000" stroke="none">
<path d="M1759 18316 c-2 -2 -35 -7 -74 -11 -38 -3 -90 -11 -115 -17 -25 -5
-54 -11 -65 -13 -80 -14 -269 -74 -317 -101 -15 -8 -30 -14 -33 -14 -29 5
-367 -195 -433 -256 -11 -11 -33 -30 -48 -43 -95 -78 -222 -213 -289 -306 -11
-15 -30 -40 -43 -55 -12 -15 -22 -32 -22 -38 0 -6 -3 -12 -8 -14 -17 -7 -103
-168 -165 -308 -41 -92 -97 -277 -112 -370 -3 -19 -8 -48 -11 -63 -3 -15 -8
-47 -12 -70 -6 -42 -15 -4669 -10 -5212 l3 -290 21 40 c12 22 40 76 64 120 24
44 61 114 82 155 22 41 49 90 60 108 11 17 16 32 11 32 -4 0 -3 4 2 8 6 4 26
36 44 72 53 100 55 105 66 112 6 4 6 8 1 8 -5 0 -4 6 2 13 5 6 31 53 57 102
99 188 145 268 157 273 4 2 8 8 8 13 0 9 15 33 136 219 68 104 73 113 80 133
3 9 10 17 14 17 4 0 13 14 20 30 7 17 16 30 20 30 4 0 13 14 20 30 7 17 16 30
21 30 5 0 9 4 9 10 0 12 251 394 262 398 4 2 8 10 8 18 0 8 7 17 15 20 8 4 15
11 15 16 0 11 162 251 191 284 11 11 19 23 19 27 0 3 30 48 68 100 37 52 74
104 82 117 8 12 20 28 25 34 6 6 46 60 89 120 43 60 83 114 88 120 5 6 30 40
56 76 25 36 49 67 52 70 3 3 23 30 45 60 22 30 45 61 52 68 7 7 27 33 44 57
18 25 36 45 41 45 5 0 7 4 4 9 -4 5 -2 11 2 13 5 1 31 33 59 70 28 37 57 74
65 83 23 28 31 38 153 190 66 83 129 161 141 175 12 14 70 84 129 155 59 72
116 141 128 155 31 36 129 152 147 173 8 10 24 29 35 41 17 19 66 76 138 160
96 112 137 158 272 304 113 123 489 492 501 492 2 0 24 19 48 43 24 23 67 62
96 87 29 25 62 53 74 63 12 11 47 40 78 65 32 26 58 50 58 55 0 4 5 7 10 7 6
0 21 9 33 21 12 11 92 74 177 140 85 66 160 123 165 127 6 4 26 19 45 32 19
14 43 33 54 43 11 9 23 17 27 17 4 0 14 6 21 13 7 7 63 47 123 88 61 40 115
78 120 82 29 22 147 97 153 97 5 0 17 8 28 18 18 16 244 156 308 191 17 9 35
20 40 24 15 10 159 92 271 152 96 52 384 196 475 238 157 72 212 97 216 97 2
0 26 9 52 21 110 49 185 78 362 144 167 61 311 107 317 102 2 -2 -27 -18 -64
-36 -38 -17 -75 -35 -83 -41 -8 -5 -40 -22 -70 -38 -82 -42 -173 -93 -187
-105 -7 -5 -13 -6 -13 -1 0 5 -4 4 -8 -2 -6 -9 -178 -114 -187 -114 -2 0 -24
-13 -48 -30 -25 -16 -50 -30 -56 -30 -6 0 -11 -5 -11 -10 0 -6 -8 -14 -17 -17
-20 -8 -115 -64 -123 -73 -3 -3 -43 -30 -90 -60 -47 -29 -87 -56 -90 -60 -3
-3 -23 -17 -45 -30 -22 -13 -42 -27 -45 -30 -3 -3 -52 -39 -110 -79 -58 -41
-111 -81 -117 -89 -7 -9 -13 -12 -13 -6 0 5 -4 4 -8 -2 -4 -5 -25 -23 -47 -39
-22 -17 -42 -32 -45 -35 -3 -4 -23 -19 -45 -35 -22 -17 -42 -32 -45 -35 -3 -3
-27 -24 -55 -45 -27 -22 -55 -44 -61 -50 -6 -5 -33 -28 -59 -50 -125 -105
-217 -190 -368 -341 -180 -178 -265 -273 -397 -439 -208 -262 -377 -545 -491
-820 -46 -112 -201 -554 -214 -610 -1 -5 -5 -17 -8 -25 -7 -20 -28 -88 -31
-103 -2 -7 -6 -19 -9 -27 -3 -8 -11 -35 -17 -59 -6 -24 -16 -55 -22 -70 -6
-14 -12 -30 -13 -36 -2 -5 -12 -41 -25 -80 -12 -38 -23 -77 -25 -85 -9 -36
-98 -290 -135 -383 -21 -56 -40 -109 -42 -117 -2 -8 -5 -17 -8 -20 -3 -3 -19
-34 -34 -70 -36 -80 -119 -253 -126 -260 -3 -3 -12 -18 -20 -35 -8 -16 -19
-34 -23 -40 -24 -30 -75 -115 -69 -115 4 0 2 -4 -5 -8 -6 -4 -27 -31 -48 -60
-20 -29 -44 -62 -53 -73 -127 -155 -267 -289 -392 -377 -36 -26 -67 -49 -70
-52 -5 -6 -143 -90 -200 -123 -66 -38 -365 -184 -413 -202 -26 -10 -50 -22
-53 -26 -3 -5 -14 -9 -25 -9 -10 0 -19 -4 -19 -10 0 -5 -3 -9 -7 -8 -11 2 -34
-7 -146 -56 -32 -14 -59 -26 -61 -26 -2 0 -30 -12 -62 -27 -33 -15 -61 -28
-64 -28 -3 -1 -23 -9 -45 -19 -78 -35 -105 -46 -107 -44 -2 1 -22 -11 -45 -25
-24 -15 -43 -25 -43 -22 0 8 -184 -89 -355 -188 -67 -38 -347 -220 -372 -242
-7 -5 -35 -26 -63 -45 -76 -52 -198 -146 -275 -211 -16 -14 -40 -34 -53 -45
-72 -59 -229 -212 -280 -273 -20 -24 -47 -55 -59 -70 -13 -14 -23 -29 -23 -34
0 -9 5526 -4 5556 5 12 3 37 9 55 12 49 8 69 12 119 26 25 7 54 14 65 16 11 2
58 17 105 34 47 17 94 34 105 37 40 12 245 122 316 170 39 26 79 53 88 58 9 6
18 12 21 15 3 3 32 27 65 54 93 76 242 232 307 320 32 45 62 86 66 91 4 6 17
26 28 45 10 19 22 37 26 40 11 9 128 246 128 261 0 8 7 25 16 37 8 12 13 22
10 22 -3 0 2 17 11 38 13 31 35 104 48 162 15 66 35 162 34 168 -1 4 0 9 1 12
3 8 8 49 14 130 4 52 10 5135 6 5418 l0 22 -2724 0 c-1497 0 -2725 -2 -2727
-4z"/>
<path d="M17595 17628 l-21 -16 0 -686 c1 -377 -2 -686 -6 -686 -4 0 -15 10
-25 23 -36 44 -119 90 -204 112 -92 24 -794 17 -882 -8 -239 -69 -406 -224
-492 -452 -14 -36 -23 -65 -20 -65 2 0 0 -12 -5 -26 -14 -36 -27 -202 -20
-239 1 -5 2 -14 1 -18 -2 -10 -2 -125 -1 -192 1 -27 1 -52 0 -55 -2 -7 -2
-123 0 -135 1 -5 2 -14 1 -19 -5 -28 -3 -185 3 -195 4 -6 3 -11 -1 -11 -5 0
-6 -27 -3 -60 3 -34 4 -63 1 -65 -2 -3 -4 -33 -3 -67 0 -35 1 -88 1 -118 0
-30 0 -62 0 -70 -2 -24 12 -94 35 -190 12 -48 59 -146 77 -160 3 -3 13 -18 21
-33 21 -41 134 -152 195 -193 69 -46 149 -81 232 -101 57 -15 151 -17 726 -19
400 -1 672 1 691 7 40 12 78 45 98 83 13 26 15 253 15 1848 0 1704 -1 1818
-17 1819 -9 1 -98 2 -196 3 -154 1 -183 -1 -201 -16z m-170 -1683 c55 -28 96
-69 131 -135 18 -33 19 -71 21 -756 3 -658 1 -723 -14 -735 -13 -11 -106 -14
-492 -14 -442 0 -480 2 -525 19 -63 24 -121 76 -154 140 l-27 51 -1 598 c-2
467 1 609 11 648 29 110 133 197 250 209 28 3 206 5 397 4 l348 -1 55 -28z"/>
<path d="M12157 17510 c-9 -4 -12 -57 -11 -205 1 -110 2 -208 3 -217 2 -34 39
-40 238 -42 l193 -1 1 35 c4 185 -1 391 -10 409 -7 11 -22 21 -34 22 -83 4
-370 3 -380 -1z"/>
<path d="M21559 17500 c-4 -80 -1 -391 4 -412 4 -15 16 -29 26 -33 25 -8 385
-10 397 -2 5 3 9 100 8 216 0 180 -3 214 -16 227 -23 24 -418 27 -419 4z"/>
<path d="M13947 16394 c-1 -2 -34 -5 -72 -7 -39 -3 -91 -10 -115 -17 -25 -7
-52 -14 -60 -15 -8 -2 -15 -4 -15 -5 0 -1 -8 -3 -18 -5 -10 -2 -48 -18 -84
-36 -206 -103 -326 -278 -360 -524 -8 -62 -9 -1178 0 -1260 13 -134 80 -283
176 -395 44 -51 151 -140 169 -140 6 0 12 -4 14 -8 4 -11 138 -69 174 -75 16
-3 49 -10 74 -15 25 -4 353 -8 730 -8 l685 1 2 186 c2 147 0 189 -11 205 -14
18 -35 19 -663 21 -356 1 -663 4 -681 8 -52 9 -117 43 -154 80 -39 39 -82 120
-73 135 3 5 2 10 -3 10 -6 0 -10 98 -10 250 -1 138 2 250 5 250 3 0 20 -13 39
-29 18 -17 50 -35 71 -40 25 -7 289 -11 768 -11 643 0 734 2 760 16 30 15 46
35 53 64 7 32 7 727 -1 764 -4 21 -9 51 -11 65 -12 101 -103 269 -187 346
-106 96 -183 133 -381 182 -22 5 -816 12 -821 7z m174 -413 c57 0 111 0 119 0
8 1 65 1 125 0 61 -1 155 -1 210 -2 86 0 133 -4 180 -13 58 -13 124 -67 146
-121 27 -67 29 -87 29 -279 0 -149 -2 -183 -15 -195 -14 -14 -88 -16 -608 -18
-385 -1 -602 3 -620 9 -15 6 -29 20 -32 32 -6 27 0 341 8 383 11 57 81 152
115 153 6 0 12 4 12 10 0 14 77 33 143 36 32 1 61 5 64 8 3 3 9 4 13 1 3 -2
53 -4 111 -4z"/>
<path d="M26067 16394 c-1 -1 -33 -4 -72 -7 -122 -10 -281 -56 -326 -94 -8 -7
-21 -13 -27 -13 -7 0 -12 -4 -12 -10 0 -5 -6 -10 -14 -10 -27 0 -160 -144
-195 -211 -34 -66 -66 -156 -78 -218 -10 -56 -13 -1280 -3 -1331 16 -78 18
-87 34 -131 48 -140 151 -274 274 -357 70 -48 122 -75 122 -65 0 5 4 3 8 -2 9
-14 103 -44 162 -53 25 -4 356 -7 735 -7 l690 0 0 187 c0 138 -3 192 -13 205
-12 17 -54 18 -658 20 -354 1 -659 4 -677 6 -37 6 -97 27 -112 39 -88 73 -122
123 -131 196 -4 31 -8 156 -8 278 l-1 221 35 -29 c70 -59 49 -58 848 -58 829
0 781 -5 805 76 20 68 14 727 -7 834 -27 137 -111 282 -212 366 -75 63 -191
124 -267 139 -10 2 -26 6 -35 9 -54 15 -134 19 -480 21 -210 1 -383 0 -385 -1z
m379 -414 c60 0 153 0 207 -1 183 0 250 -11 285 -46 8 -7 22 -18 32 -23 20
-11 55 -77 66 -125 4 -16 7 -114 8 -217 1 -141 -2 -190 -12 -200 -10 -10 -136
-13 -619 -14 -546 0 -607 1 -626 16 -18 15 -20 29 -21 175 -1 87 4 184 11 216
12 62 48 125 83 149 12 8 29 21 36 28 8 7 22 15 31 17 10 2 33 8 51 14 18 5
100 10 183 10 83 0 154 2 157 5 2 3 8 4 12 1 3 -2 56 -4 116 -5z"/>
<path d="M9520 16367 c-31 -15 -51 -36 -65 -62 -20 -40 -20 -60 -20 -1840 l0
-1800 201 -3 c188 -2 202 -1 218 17 16 18 18 64 17 685 0 366 2 666 5 666 3 0
16 -10 29 -22 59 -56 106 -83 185 -107 51 -16 98 -18 441 -16 211 1 398 5 414
9 239 53 425 197 519 400 10 21 19 44 20 50 1 6 7 27 13 46 7 19 15 53 19 75
9 50 9 1295 0 1350 -27 177 -81 286 -195 394 -31 29 -65 57 -76 62 -11 5 -33
17 -50 28 -16 10 -59 28 -95 40 -138 48 -164 50 -870 51 l-666 0 -44 -23z
m1384 -407 c9 -7 16 -10 16 -6 0 10 72 -30 97 -54 27 -24 64 -94 70 -130 3
-14 6 -290 7 -613 1 -453 -1 -600 -11 -639 -27 -104 -116 -190 -220 -213 -44
-9 -730 -9 -773 0 -99 22 -190 115 -206 210 -4 22 -7 351 -7 732 0 741 -2 715
48 724 10 2 231 4 491 3 371 0 476 -3 488 -14z"/>
<path d="M12149 16378 c0 -7 -2 -562 -2 -1232 -2 -1124 -1 -1222 15 -1240 15
-20 27 -21 212 -22 122 -1 199 2 203 8 4 8 8 2378 4 2455 -1 6 -8 19 -17 27
-13 14 -47 16 -215 16 -152 0 -199 -3 -200 -12z"/>
<path d="M18948 16383 c-10 -2 -18 -8 -18 -12 0 -4 -11 -13 -25 -19 -23 -11
-41 -39 -52 -82 -3 -12 -7 -3469 -4 -3582 l1 -28 198 0 c108 0 202 4 209 8 6
4 16 19 20 32 5 14 8 319 8 678 -1 358 2 652 6 652 4 0 14 -8 21 -18 30 -42
131 -98 206 -116 89 -21 772 -15 870 7 278 64 496 290 538 560 9 55 10 1299 1
1352 -18 113 -66 253 -89 263 -4 2 -8 9 -8 16 0 22 -131 151 -185 183 -59 34
-121 64 -144 68 -9 2 -16 4 -16 5 0 2 -6 3 -100 24 -59 12 -178 15 -745 14
-371 0 -683 -2 -692 -5z m1342 -417 c93 -19 160 -76 192 -164 16 -43 17 -104
15 -667 l-2 -620 -24 -47 c-40 -82 -125 -148 -211 -163 -44 -8 -725 -8 -765 0
-67 14 -143 75 -182 147 -17 31 -18 78 -20 766 l-3 733 29 12 c31 13 907 16
971 3z"/>
<path d="M21559 16373 c0 -10 -1 -566 -1 -1235 -1 -1123 0 -1219 16 -1236 15
-17 35 -19 219 -19 l202 0 0 1237 c-1 1130 -2 1239 -17 1254 -14 14 -45 16
-217 16 -184 0 -201 -1 -202 -17z"/>
<path d="M22741 16379 c-19 -6 -41 -18 -48 -27 -48 -60 -53 -76 -53 -162 0
-30 -1 -77 -1 -105 -1 -44 0 -173 2 -200 0 -5 0 -39 0 -75 -1 -36 -1 -74 -1
-85 1 -23 1 -215 1 -230 -2 -73 -3 -160 -2 -200 1 -27 1 -120 1 -205 0 -85 1
-159 1 -165 0 -5 0 -39 -1 -75 0 -36 0 -85 1 -110 0 -25 0 -47 -1 -50 -4 -14
-3 -140 1 -145 3 -2 2 -31 -1 -64 -3 -32 -3 -71 1 -84 4 -14 5 -28 2 -31 -5
-4 -6 -88 -2 -156 0 -8 0 -42 -1 -75 -1 -33 -1 -64 0 -70 1 -5 2 -12 1 -15 -5
-12 -4 -140 0 -145 3 -2 2 -31 -1 -64 -3 -32 -3 -71 1 -84 4 -14 5 -28 2 -31
-3 -3 -5 -38 -4 -78 1 -40 1 -95 0 -123 -1 -43 0 -170 2 -200 0 -5 0 -39 0
-75 -1 -36 -1 -74 -1 -85 1 -23 1 -215 1 -230 0 -5 -1 -46 -1 -90 0 -44 0
-100 0 -124 0 -24 -3 -47 -6 -52 -3 -5 83 -9 198 -9 160 0 208 3 224 14 18 14
19 33 19 689 l0 675 40 -36 c22 -20 42 -38 45 -42 11 -13 107 -54 156 -65 54
-13 769 -13 833 0 141 29 269 95 364 189 98 97 135 152 174 260 14 40 17 51
30 111 9 39 10 1329 1 1375 -22 121 -54 203 -113 288 -42 62 -54 74 -120 125
-66 51 -153 92 -250 119 -79 22 -91 22 -770 25 -444 1 -702 -2 -724 -8z m1344
-413 c85 -16 156 -75 186 -155 21 -55 21 -69 22 -651 0 -327 -3 -611 -8 -630
-14 -64 -85 -170 -114 -170 -6 0 -11 -3 -11 -8 0 -7 -26 -20 -85 -42 -35 -13
-728 -18 -784 -5 -82 18 -149 73 -189 155 l-27 55 0 713 c0 768 -2 734 49 743
38 7 922 2 961 -5z"/>
<path d="M28076 16374 c-4 -9 -2 -13 5 -8 8 4 8 0 2 -12 -10 -22 -10 -170 0
-180 3 -4 2 -15 -4 -25 -7 -13 -6 -19 1 -19 6 0 8 -5 4 -12 -9 -15 -9 -212 0
-227 4 -6 4 -11 -1 -11 -10 0 -9 -212 1 -229 4 -6 4 -11 -1 -11 -10 0 -9 -213
1 -229 4 -6 4 -11 -1 -11 -9 0 -10 -177 0 -186 3 -4 2 -15 -4 -25 -7 -13 -6
-19 1 -19 6 0 8 -5 4 -12 -9 -15 -9 -212 0 -227 4 -6 4 -11 -1 -11 -10 0 -9
-212 1 -229 4 -6 4 -11 -1 -11 -10 0 -9 -213 1 -229 4 -6 4 -11 -1 -11 -9 0
-10 -177 0 -186 3 -4 2 -15 -4 -25 -7 -13 -6 -19 1 -19 6 0 8 -5 4 -12 -10
-15 -11 -207 -2 -202 4 3 4 -5 0 -17 -11 -29 -4 -65 16 -81 11 -10 69 -13 214
-15 109 0 198 2 199 5 1 4 2 432 3 952 l2 945 21 41 c12 23 37 56 55 74 63 63
69 64 438 67 184 1 345 2 357 3 49 1 53 17 53 223 l0 192 -338 0 c-302 -1
-343 -3 -392 -19 -66 -23 -117 -54 -163 -99 l-33 -34 0 65 c0 93 3 92 -235 92
-169 0 -198 -2 -203 -16z"/>
</g>
</svg>
